<?xml version="1.0" encoding="UTF-8"?>
<svg width="1920" height="550" viewBox="0 0 1440 412.5" xmlns="http://www.w3.org/2000/svg">
  <g fill="#ff006b">
    <path d="M720 206.25c0 113.93-92.32 206.25-206.25 206.25S307.5 320.18 307.5 206.25 399.82 0 513.75 0 720 92.32 720 206.25zm-206.25-82.5c-45.49 0-82.5 37.01-82.5 82.5s37.01 82.5 82.5 82.5 82.5-37.01 82.5-82.5-37.01-82.5-82.5-82.5z"/>
    <path d="M513.75 0C399.82 0 307.5 92.32 307.5 206.25S399.82 412.5 513.75 412.5 720 320.18 720 206.25 627.68 0 513.75 0zm0 371.25c-90.97 0-165-74.03-165-165s74.03-165 165-165 165 74.03 165 165-74.03 165-165 165z"/>
  </g>
</svg>