<svg width="436" height="108" viewBox="0 0 436 108" fill="none" xmlns="http://www.w3.org/2000/svg">
  <path d="M0 0H436V108H0V0Z" fill="none"/>
  <path d="M14.3 89.7c-2.8 0-5.2-1-7.2-3-2-2-3-4.4-3-7.2V28.5c0-2.8 1-5.2 3-7.2 2-2 4.4-3 7.2-3h407.4c2.8 0 5.2 1 7.2 3 2 2 3 4.4 3 7.2v50.9c0 2.8-1 5.2-3 7.2-2 2-4.4 3-7.2 3H14.3z" fill="#FF1493" stroke="#000" stroke-width="2"/>
  <path d="M14.3 89.7c-2.8 0-5.2-1-7.2-3-2-2-3-4.4-3-7.2V28.5c0-2.8 1-5.2 3-7.2 2-2 4.4-3 7.2-3h407.4c2.8 0 5.2 1 7.2 3 2 2 3 4.4 3 7.2v50.9c0 2.8-1 5.2-3 7.2-2 2-4.4 3-7.2 3H14.3z" fill="#FF1493"/>
  <text x="50%" y="50%" dominant-baseline="middle" text-anchor="middle" fill="white" font-family="Arial" font-size="48" font-weight="bold">AMZIFY</text>
</svg>